<svg width="17.765991" height="13.321884" viewBox="0 0 17.766 13.3219" fill="none" xmlns="http://www.w3.org/2000/svg" xmlns:xlink="http://www.w3.org/1999/xlink">
	<desc>
			Created with Pixso.
	</desc>
	<defs/>
	<path id="Arrow 1" d="M2.41833 6.66093L7.36804 1.71118C7.76404 1.3152 7.76404 0.692947 7.36804 0.296982C6.97205 -0.098999 6.34985 -0.098999 5.95386 0.296982L0.296997 5.95383C-0.098999 6.34981 -0.098999 6.97206 0.296997 7.36804L5.95386 13.0249C6.34985 13.4209 6.97205 13.4209 7.36804 13.0249C7.76404 12.6289 7.76404 12.0067 7.36804 11.6107L2.41833 6.66093Z" fill="#31261A" fill-opacity="1.000000" fill-rule="nonzero"/>
	<path id="Arrow 1" d="M17.766 5.66093L1.00403 5.66093L1.00403 7.66093L17.766 7.66093L17.766 5.66093ZM2.41833 6.66093L7.36804 1.71118C7.76404 1.3152 7.76404 0.692947 7.36804 0.296982C6.97205 -0.098999 6.34985 -0.098999 5.95386 0.296982L0.296997 5.95383C-0.098999 6.34981 -0.098999 6.97206 0.296997 7.36804L5.95386 13.0249C6.34985 13.4209 6.97205 13.4209 7.36804 13.0249C7.76404 12.6289 7.76404 12.0067 7.36804 11.6107L2.41833 6.66093Z" fill="#FAF4EA" fill-opacity="1.000000" fill-rule="evenodd"/>
</svg>
